<svg width="22" height="34" viewBox="0 0 22 34" fill="none" xmlns="http://www.w3.org/2000/svg">
<path d="M5.63709 0.675323C4.35726 0.675323 3.12985 1.19463 2.22488 2.119C1.3199 3.04336 0.811495 4.29707 0.811495 5.60433C0.811495 6.91158 1.3199 8.16529 2.22488 9.08966C3.12985 10.014 4.35726 10.5333 5.63709 10.5333H16.8968C18.1766 10.5333 19.4041 10.014 20.309 9.08966C21.214 8.16529 21.7224 6.91158 21.7224 5.60433C21.7224 4.29707 21.214 3.04336 20.309 2.119C19.4041 1.19463 18.1766 0.675323 16.8968 0.675323H5.63709ZM16.8968 12.1763C15.617 12.1763 14.3896 12.6956 13.4846 13.62C12.5796 14.5444 12.0712 15.7981 12.0712 17.1053C12.0712 18.4126 12.5796 19.6663 13.4846 20.5907C14.3896 21.515 15.617 22.0343 16.8968 22.0343C18.1766 22.0343 19.4041 21.515 20.309 20.5907C21.214 19.6663 21.7224 18.4126 21.7224 17.1053C21.7224 15.7981 21.214 14.5444 20.309 13.62C19.4041 12.6956 18.1766 12.1763 16.8968 12.1763ZM0.811495 17.1053C0.811495 15.7981 1.3199 14.5444 2.22488 13.62C3.12985 12.6956 4.35726 12.1763 5.63709 12.1763H10.4627V22.0343H5.63709C4.35726 22.0343 3.12985 21.515 2.22488 20.5907C1.3199 19.6663 0.811495 18.4126 0.811495 17.1053ZM5.63709 23.6773C4.68268 23.6773 3.7497 23.9664 2.95613 24.508C2.16257 25.0496 1.54406 25.8194 1.17882 26.7201C0.813584 27.6208 0.718021 28.6118 0.904218 29.5679C1.09041 30.5241 1.55001 31.4023 2.22488 32.0917C2.89975 32.781 3.75959 33.2504 4.69567 33.4406C5.63174 33.6308 6.60201 33.5332 7.48377 33.1601C8.36553 32.7871 9.11919 32.1553 9.64943 31.3447C10.1797 30.5342 10.4627 29.5812 10.4627 28.6063V23.6773H5.63709Z" fill="#0469FF"/>
</svg>
