<svg width="38" height="33" viewBox="0 0 38 33" fill="none" xmlns="http://www.w3.org/2000/svg">
<path d="M18.7735 3.33066C10.2919 3.33066 3.4222 9.27202 3.4222 16.6074C3.42035 19.3944 4.43323 22.1112 6.31716 24.3723C8.20108 26.6334 10.8604 28.3241 13.9179 29.2044C14.6854 29.32 14.974 28.9216 14.974 28.5725C14.974 28.2578 14.9541 27.2129 14.9541 26.1003C11.0978 26.715 10.1 25.2878 9.79298 24.5403C9.61951 24.1579 8.8719 22.9803 8.21947 22.6643C7.68218 22.416 6.91461 21.8013 8.19951 21.7854C9.40919 21.7681 10.2719 22.7479 10.5605 23.1462C11.9422 25.1537 14.1481 24.5894 15.0308 24.2416C15.1659 23.3786 15.5681 22.7984 16.0102 22.4665C12.5946 22.1346 9.02541 20.9888 9.02541 15.9104C9.02541 14.4659 9.61951 13.2723 10.5989 12.3416C10.4454 12.0097 9.90811 10.6488 10.7524 8.82326C10.7524 8.82326 12.0373 8.47541 14.974 10.1855C16.2237 9.88548 17.5149 9.7345 18.8118 9.7367C20.1167 9.7367 21.4216 9.8854 22.6497 10.1841C25.5864 8.45815 26.8713 8.82459 26.8713 8.82459C27.7156 10.6501 27.1783 12.011 27.0248 12.3429C28.0027 13.2723 28.5983 14.45 28.5983 15.9104C28.5983 21.006 25.0107 22.1346 21.5935 22.4665C22.1508 22.8807 22.6312 23.6773 22.6312 24.9227C22.6312 26.6978 22.6113 28.125 22.6113 28.5738C22.6113 28.9216 22.8999 29.3359 23.6675 29.2031C26.7144 28.3131 29.362 26.6191 31.2376 24.3596C33.1133 22.1002 34.1224 19.3889 34.1232 16.6074C34.1232 9.27202 27.2535 3.33066 18.7719 3.33066H18.7735Z" fill="#0469FF"/>
</svg>
