<svg width="33" height="33" viewBox="0 0 33 33" fill="none" xmlns="http://www.w3.org/2000/svg">
<path d="M4.06478 11.3883L9.30114 20.4577C10.1242 21.9499 11.4042 23.1388 12.953 23.8495C14.5018 24.5602 16.2378 24.7554 17.9058 24.4062L14.7911 29.8019C8.15801 29.0637 2.99998 23.4383 2.99998 16.6074C2.99998 14.754 3.3797 12.9908 4.06478 11.3883ZM28.4489 11.2967C29.1799 12.9717 29.556 14.7799 29.5535 16.6074C29.5535 23.4025 24.4486 29.0053 17.8633 29.7913L23.1077 20.71C23.8286 19.5124 24.2428 18.1077 24.2428 16.6074C24.2455 14.6474 23.5229 12.7557 22.2141 11.2967H28.4489ZM16.2768 11.2967C17.6852 11.2967 19.036 11.8562 20.032 12.8522C21.028 13.8482 21.5875 15.199 21.5875 16.6074C21.5875 18.0159 21.028 19.3667 20.032 20.3627C19.036 21.3586 17.6852 21.9182 16.2768 21.9182C14.8683 21.9182 13.5175 21.3586 12.5215 20.3627C11.5256 19.3667 10.966 18.0159 10.966 16.6074C10.966 15.199 11.5256 13.8482 12.5215 12.8522C13.5175 11.8562 14.8683 11.2967 16.2768 11.2967ZM16.2768 3.33066C18.3382 3.32911 20.3716 3.80832 22.2154 4.73022C24.0592 5.65212 25.6626 6.9913 26.8982 8.64137H16.2768C14.5993 8.64156 12.9646 9.17103 11.6056 10.1544C10.2466 11.1377 9.23245 12.5248 8.70767 14.118L5.59294 8.72369C6.82623 7.05007 8.43581 5.68993 10.2917 4.7531C12.1476 3.81627 14.1978 3.32901 16.2768 3.33066Z" fill="#0469FF"/>
</svg>
