<svg width="29" height="31" viewBox="0 0 29 31" fill="none" xmlns="http://www.w3.org/2000/svg">
<g clip-path="url(#clip0_1_68)">
<mask id="mask0_1_68" style="mask-type:luminance" maskUnits="userSpaceOnUse" x="0" y="0" width="29" height="31">
<path d="M0.368515 0.675323H28.2497V30.5481H0.368515V0.675323Z" fill="white"/>
</mask>
<g mask="url(#mask0_1_68)">
<path fill-rule="evenodd" clip-rule="evenodd" d="M0.368515 0.675323H28.2497V30.5481H0.368515V0.675323ZM21.6826 25.7186C20.3896 25.7186 19.6588 24.9967 19.0977 24.0134L16.9683 25.339C17.7374 26.9671 19.3092 28.2093 21.743 28.2093C24.2314 28.2093 26.0843 26.8252 26.0843 24.2972C26.0843 21.9534 24.8273 20.9116 22.6015 19.8872L21.9463 19.5873C20.8217 19.0645 20.335 18.7247 20.335 17.882C20.335 17.2012 20.8229 16.6796 21.5896 16.6796C22.3412 16.6796 22.8257 17.0195 23.2753 17.882L25.3152 16.4793C24.4521 14.8524 23.2555 14.2313 21.5896 14.2313C19.2499 14.2313 17.7525 15.8345 17.7525 17.9405C17.7525 20.2246 19.0071 21.3062 20.8984 22.1688L21.5536 22.47C22.749 23.0301 23.4611 23.3711 23.4611 24.3333C23.4611 25.1374 22.7676 25.7186 21.6826 25.7186ZM11.5291 25.7C10.6288 25.7 10.2536 25.0403 9.84233 24.2561L7.70941 25.6402C8.32745 27.0418 9.5426 28.2043 11.6395 28.2043C13.9618 28.2043 15.5522 26.8812 15.5522 23.9748V14.3906H12.9325V23.9375C12.9325 25.3403 12.3888 25.7 11.528 25.7H11.5291Z" fill="#0469FF"/>
</g>
</g>
<defs>
<clipPath id="clip0_1_68">
<rect width="27.8812" height="29.8727" fill="white" transform="translate(0.368515 0.675323)"/>
</clipPath>
</defs>
</svg>
