<svg width="72" height="72" viewBox="0 0 72 72" fill="none" xmlns="http://www.w3.org/2000/svg">
<g clip-path="url(#clip0_1_101)">
<path d="M54 9C56.3869 9 58.6761 9.94821 60.364 11.636C62.0518 13.3239 63 15.6131 63 18V54C63 56.3869 62.0518 58.6761 60.364 60.364C58.6761 62.0518 56.3869 63 54 63H18C15.6131 63 13.3239 62.0518 11.636 60.364C9.94821 58.6761 9 56.3869 9 54V18C9 15.6131 9.94821 13.3239 11.636 11.636C13.3239 9.94821 15.6131 9 18 9H54ZM54 15H18C17.2044 15 16.4413 15.3161 15.8787 15.8787C15.3161 16.4413 15 17.2044 15 18V54C15 54.7957 15.3161 55.5587 15.8787 56.1213C16.4413 56.6839 17.2044 57 18 57H54C54.7957 57 55.5587 56.6839 56.1213 56.1213C56.6839 55.5587 57 54.7957 57 54V18C57 17.2044 56.6839 16.4413 56.1213 15.8787C55.5587 15.3161 54.7957 15 54 15ZM24 30C24.7348 30.0001 25.444 30.2699 25.9931 30.7581C26.5422 31.2464 26.893 31.9192 26.979 32.649L27 33V48C26.9992 48.7646 26.7064 49.5001 26.1815 50.0561C25.6565 50.6121 24.9391 50.9467 24.1758 50.9915C23.4125 51.0363 22.6609 50.788 22.0745 50.2972C21.4881 49.8064 21.1113 49.1103 21.021 48.351L21 48V33C21 32.2044 21.3161 31.4413 21.8787 30.8787C22.4413 30.3161 23.2044 30 24 30ZM33 27C33.7026 26.9999 34.3829 27.2464 34.9224 27.6965C35.4619 28.1466 35.8262 28.7718 35.952 29.463C36.5557 29.1129 37.1798 28.7994 37.821 28.524C39.822 27.669 42.819 27.198 45.525 28.047C46.944 28.497 48.369 29.337 49.425 30.768C50.37 32.043 50.88 33.594 50.982 35.337L51 36V48C50.9992 48.7646 50.7064 49.5001 50.1815 50.0561C49.6565 50.6121 48.9391 50.9467 48.1758 50.9915C47.4125 51.0363 46.6609 50.788 46.0745 50.2972C45.4881 49.8064 45.1113 49.1103 45.021 48.351L45 48V36C45 35.01 44.76 34.548 44.604 34.335C44.3801 34.0565 44.0715 33.8585 43.725 33.771C42.681 33.441 41.178 33.615 40.179 34.041C38.679 34.683 37.305 35.691 36.369 36.624L36 37.02V48C35.9992 48.7646 35.7064 49.5001 35.1815 50.0561C34.6565 50.6121 33.9391 50.9467 33.1758 50.9915C32.4125 51.0363 31.6609 50.788 31.0745 50.2972C30.4881 49.8064 30.1113 49.1103 30.021 48.351L30 48V30C30 29.2044 30.3161 28.4413 30.8787 27.8787C31.4413 27.3161 32.2044 27 33 27ZM24 21C24.7956 21 25.5587 21.3161 26.1213 21.8787C26.6839 22.4413 27 23.2044 27 24C27 24.7956 26.6839 25.5587 26.1213 26.1213C25.5587 26.6839 24.7956 27 24 27C23.2044 27 22.4413 26.6839 21.8787 26.1213C21.3161 25.5587 21 24.7956 21 24C21 23.2044 21.3161 22.4413 21.8787 21.8787C22.4413 21.3161 23.2044 21 24 21Z" fill="#FEAF91"/>
</g>
<defs>
<clipPath id="clip0_1_101">
<rect width="72" height="72" fill="white"/>
</clipPath>
</defs>
</svg>
