<svg width="52" height="32" viewBox="0 0 52 32" fill="none" xmlns="http://www.w3.org/2000/svg">
<path d="M25.3994 31.5438C25.2328 31.5438 25.0662 31.4966 24.9154 31.4178L23.3919 30.5201C23.1618 30.3941 23.2729 30.3468 23.3522 30.3232C23.6537 30.2208 23.7172 30.1972 24.0425 30.0082C24.0743 29.9925 24.1219 30.0003 24.1536 30.0161L25.328 30.7091C25.3677 30.7327 25.4312 30.7327 25.4708 30.7091L30.0572 28.0789C30.0969 28.0552 30.1287 28.008 30.1287 27.9529V22.7003C30.1287 22.6452 30.1048 22.5979 30.0572 22.5743L25.4708 19.952C25.4312 19.9283 25.3756 19.9283 25.328 19.952L20.7416 22.5743C20.694 22.5979 20.6702 22.6531 20.6702 22.7003V27.9529C20.6702 28.0001 20.7019 28.0474 20.7416 28.071L21.9953 28.7876C22.6777 29.1262 23.0983 28.7246 23.0983 28.3309V23.1413C23.0983 23.0704 23.1538 23.0074 23.2332 23.0074H23.8124C23.8838 23.0074 23.9473 23.0626 23.9473 23.1413V28.3309C23.9473 29.2365 23.4554 29.7484 22.5905 29.7484C22.3286 29.7484 22.1144 29.7484 21.5351 29.4649L20.329 28.7797C20.0354 28.6065 19.845 28.2915 19.845 27.9529V22.7003C19.845 22.3617 20.0275 22.0388 20.329 21.8734L24.9154 19.2432C25.209 19.0778 25.5899 19.0778 25.8755 19.2432L30.4619 21.8734C30.7555 22.0467 30.946 22.3617 30.946 22.7003V27.9529C30.946 28.2915 30.7635 28.6144 30.4619 28.7797L25.8755 31.41C25.7406 31.4966 25.574 31.5438 25.3994 31.5438ZM29.105 26.3621C29.105 25.3778 28.4385 25.1179 27.0261 24.9289C25.5978 24.7399 25.455 24.6454 25.455 24.3147C25.455 24.039 25.574 23.6768 26.6293 23.6768C27.5736 23.6768 27.9227 23.8815 28.0656 24.5115C28.0814 24.5745 28.129 24.6139 28.1925 24.6139H28.7876C28.8273 24.6139 28.8591 24.5982 28.8829 24.5745C28.9067 24.543 28.9225 24.5115 28.9146 24.4722C28.8194 23.3854 28.0973 22.8814 26.6293 22.8814C25.3201 22.8814 24.5424 23.4327 24.5424 24.3462C24.5424 25.3463 25.3201 25.614 26.5738 25.74C28.0735 25.8896 28.1925 26.1023 28.1925 26.3936C28.1925 26.9055 27.7799 27.1181 26.8118 27.1181C25.5978 27.1181 25.328 26.8189 25.2407 26.2204C25.2328 26.1574 25.1772 26.1101 25.1058 26.1101H24.5107C24.4393 26.1101 24.3758 26.1653 24.3758 26.244C24.3758 27.0079 24.7964 27.9214 26.8039 27.9214C28.2719 27.9214 29.105 27.3544 29.105 26.3621ZM33.4296 22.4168C33.4296 22.8972 33.0328 23.2909 32.5488 23.2909C32.0648 23.2909 31.668 22.8972 31.668 22.4168C31.668 21.9207 32.0807 21.5427 32.5488 21.5427C33.0249 21.5348 33.4296 21.9207 33.4296 22.4168ZM33.2868 22.4168C33.2868 22.0073 32.9535 21.6844 32.5409 21.6844C32.1362 21.6844 31.8029 22.0073 31.8029 22.4168C31.8029 22.8263 32.1362 23.1571 32.5409 23.1571C32.9535 23.1492 33.2868 22.8184 33.2868 22.4168ZM32.9297 22.9051H32.7234C32.7154 22.8578 32.6837 22.6058 32.6837 22.5979C32.6678 22.5428 32.652 22.5113 32.5806 22.5113H32.406V22.9051H32.2155V21.9207H32.5567C32.6758 21.9207 32.9059 21.9207 32.9059 22.1806C32.9059 22.3617 32.7869 22.4011 32.7154 22.4247C32.8503 22.4326 32.8583 22.5192 32.8821 22.6452C32.89 22.7239 32.9059 22.8578 32.9297 22.9051ZM32.7075 22.2121C32.7075 22.0782 32.6123 22.0782 32.5647 22.0782H32.406V22.3538H32.5567C32.6837 22.3538 32.7075 22.2672 32.7075 22.2121ZM11.1959 10.9903C11.1959 10.7777 11.0848 10.5887 10.9023 10.4863L6.03815 7.70648C5.9588 7.65923 5.86358 7.6356 5.76836 7.62773H5.72075C5.62553 7.62773 5.53824 7.65923 5.45096 7.70648L0.594771 10.4863C0.412267 10.5887 0.301178 10.7856 0.301178 10.9903L0.309113 18.4715C0.309113 18.5739 0.364658 18.6684 0.451942 18.7235C0.539226 18.7786 0.650316 18.7786 0.745535 18.7235L3.63386 17.0776C3.81636 16.9674 3.92745 16.7784 3.92745 16.5736V13.0772C3.92745 12.8724 4.03854 12.6755 4.22104 12.5732L5.45096 11.8723C5.54618 11.8172 5.6414 11.7936 5.74455 11.7936C5.84771 11.7936 5.95086 11.8172 6.03815 11.8723L7.26806 12.5732C7.45057 12.6755 7.56166 12.8724 7.56166 13.0772V16.5736C7.56166 16.7784 7.67275 16.9752 7.85525 17.0776L10.7436 18.7235C10.8309 18.7786 10.9499 18.7786 11.0372 18.7235C11.1244 18.6762 11.18 18.5739 11.18 18.4715L11.1959 10.9903ZM37.7938 2.82403V16.7154C37.7938 16.9201 37.6827 17.117 37.5002 17.2194L32.6361 20.0071C32.4536 20.1095 32.2314 20.1095 32.0489 20.0071L27.1848 17.2194C27.0023 17.117 26.8912 16.9201 26.8912 16.7154V11.1399C26.8912 10.9352 27.0023 10.7383 27.1848 10.6359L32.0489 7.84822C32.2314 7.74585 32.4536 7.74585 32.6361 7.84822L33.8501 8.54122C33.985 8.61996 34.1596 8.51759 34.1596 8.36797V0.965552C34.1596 0.745054 34.3977 0.603306 34.596 0.713554L37.4923 2.32004C37.6748 2.41454 37.7938 2.61141 37.7938 2.82403ZM34.1437 12.9748C34.1437 12.9197 34.112 12.8724 34.0723 12.8488L32.406 11.8881C32.3584 11.8644 32.3028 11.8644 32.2552 11.8881L30.5889 12.8488C30.5413 12.8724 30.5175 12.9197 30.5175 12.9748V14.8884C30.5175 14.9435 30.5492 14.9908 30.5889 15.0144L32.2552 15.9673C32.3028 15.9909 32.3584 15.9909 32.398 15.9673L34.0644 15.0144C34.112 14.9908 34.1358 14.9435 34.1358 14.8884V12.9748H34.1437ZM50.7913 12.9197C50.9738 12.8173 51.0849 12.6204 51.0849 12.4157V11.0691C51.0849 10.8643 50.9738 10.6674 50.7913 10.5651L45.9589 7.77735C45.7764 7.67498 45.5542 7.67498 45.3717 7.77735L40.5076 10.5651C40.3251 10.6674 40.214 10.8643 40.214 11.0691V16.6445C40.214 16.8571 40.3251 17.0461 40.5076 17.1485L45.34 19.8811C45.5145 19.9835 45.7367 19.9835 45.9192 19.8811L48.8393 18.2667C49.0376 18.1565 49.0376 17.873 48.8393 17.7627L43.9434 14.975C43.8482 14.9199 43.7926 14.8254 43.7926 14.723V12.9748C43.7926 12.8724 43.8482 12.7779 43.9434 12.7228L45.4669 11.8487C45.5542 11.7936 45.6732 11.7936 45.7605 11.8487L47.284 12.7228C47.3713 12.7779 47.4348 12.8724 47.4348 12.9748V14.345C47.4348 14.5655 47.6808 14.7073 47.8791 14.597L50.7913 12.9197ZM44.6575 13.1953C44.6258 13.2189 44.602 13.2504 44.602 13.2898V14.3608C44.602 14.4002 44.6258 14.4395 44.6575 14.4553L45.5939 14.9908C45.6256 15.0144 45.6732 15.0144 45.705 14.9908L46.6413 14.4553C46.673 14.4316 46.6968 14.4002 46.6968 14.3608V13.2898C46.6968 13.2504 46.673 13.211 46.6413 13.1953L45.705 12.6598C45.6732 12.6362 45.6256 12.6362 45.5939 12.6598L44.6575 13.1953ZM24.4869 16.6209V11.0769C24.4869 10.8722 24.3599 10.6753 24.1774 10.5729L19.3292 7.80097C19.1626 7.70648 18.9324 7.69073 18.742 7.80097L13.8937 10.5729C13.7112 10.6753 13.5843 10.8643 13.5843 11.0769V16.6209C13.5843 16.8414 13.735 17.0304 13.9017 17.1249L18.7579 19.8968C18.9483 20.0071 19.1705 19.9992 19.3451 19.8968L24.1854 17.1249C24.3282 17.0461 24.4314 16.9122 24.471 16.7547C24.479 16.7154 24.4869 16.6681 24.4869 16.6209ZM18.5912 6.78511L18.5278 6.82449H18.615L18.5912 6.78511ZM24.6377 17.0382L24.6059 16.9831V17.054L24.6377 17.0382Z" fill="#0469FF"/>
</svg>
