<svg width="36" height="30" viewBox="0 0 36 30" fill="none" xmlns="http://www.w3.org/2000/svg">
<path d="M12.3109 14.8381L1.48897 4.32636C1.28016 4.13047 1.11361 3.89614 0.999027 3.63706C0.884448 3.37797 0.824138 3.09932 0.821616 2.81735C0.819093 2.53538 0.874409 2.25575 0.984335 1.99477C1.09426 1.73379 1.2566 1.49669 1.46187 1.2973C1.66714 1.09792 1.91124 0.940234 2.17992 0.833459C2.4486 0.726684 2.73649 0.672953 3.02677 0.675404C3.31706 0.677854 3.60394 0.736435 3.87067 0.84773C4.1374 0.959024 4.37864 1.1208 4.58032 1.32363L16.9479 13.3367C17.3578 13.7349 17.588 14.275 17.588 14.8381C17.588 15.4012 17.3578 15.9412 16.9479 16.3394L4.58032 28.3525C4.16799 28.7393 3.61574 28.9534 3.04251 28.9485C2.46928 28.9437 1.92095 28.7204 1.5156 28.3266C1.11025 27.9329 0.880327 27.4003 0.875346 26.8435C0.870365 26.2867 1.09073 25.7503 1.48897 25.3498L12.3109 14.8381ZM15.9969 25.3052H33.4868C34.0667 25.3052 34.6227 25.5289 35.0327 25.9271C35.4427 26.3254 35.6731 26.8655 35.6731 27.4287C35.6731 27.9919 35.4427 28.5321 35.0327 28.9303C34.6227 29.3286 34.0667 29.5523 33.4868 29.5523H15.9969C15.4171 29.5523 14.861 29.3286 14.451 28.9303C14.041 28.5321 13.8106 27.9919 13.8106 27.4287C13.8106 26.8655 14.041 26.3254 14.451 25.9271C14.861 25.5289 15.4171 25.3052 15.9969 25.3052Z" fill="#0469FF"/>
</svg>
