<svg width="60" height="60" viewBox="0 0 60 60" fill="none" xmlns="http://www.w3.org/2000/svg">
<path d="M30.0015 0.5C13.4257 0.5 4.93528e-06 14.0355 4.93528e-06 30.7469C-0.00360742 37.0962 1.9759 43.2854 5.65772 48.4367C9.33954 53.5879 14.5367 57.4395 20.512 59.4452C22.0121 59.7083 22.5761 58.8009 22.5761 58.0054C22.5761 57.2886 22.5371 54.9081 22.5371 52.3734C15.0008 53.7739 13.0507 50.5223 12.4506 48.8194C12.1116 47.9483 10.6505 45.2654 9.37547 44.5455C8.32542 43.9799 6.82535 42.5795 9.33647 42.5432C11.7006 42.5039 13.3867 44.7361 13.9507 45.6435C16.6508 50.2168 20.962 48.9313 22.6871 48.1389C22.9511 46.1728 23.7372 44.851 24.6012 44.0949C17.9259 43.3387 10.9506 40.7284 10.9506 29.1589C10.9506 25.8681 12.1116 23.1489 14.0257 21.0286C13.7257 20.2724 12.6756 17.1721 14.3257 13.0131C14.3257 13.0131 16.8368 12.2207 22.5761 16.1165C25.0184 15.4331 27.5419 15.0891 30.0765 15.0941C32.6266 15.0941 35.1768 15.4329 37.5769 16.1135C43.3162 12.1814 45.8273 13.0162 45.8273 13.0162C47.4774 17.1751 46.4273 20.2754 46.1273 21.0316C48.0384 23.1489 49.2025 25.8318 49.2025 29.1589C49.2025 40.7677 42.1911 43.3387 35.5128 44.0949C36.6018 45.0386 37.5409 46.8534 37.5409 49.6905C37.5409 53.7346 37.5019 56.9861 37.5019 58.0084C37.5019 58.8009 38.0659 59.7446 39.566 59.4421C45.5208 57.4145 50.6951 53.5553 54.3606 48.4078C58.0262 43.2603 59.9985 37.0836 60 30.7469C60 14.0355 46.5743 0.5 29.9985 0.5H30.0015Z" fill="#FEAF91"/>
</svg>
