<svg width="39" height="31" viewBox="0 0 39 31" fill="none" xmlns="http://www.w3.org/2000/svg">
<path d="M16.8625 8.55043H11.0026C8.04647 7.79157 1.35891 7.98906 1.35891 13.9609C1.35891 16.1376 2.46747 17.6669 3.94554 18.3737C2.09056 20.0376 1.2111 20.8225 1.2111 21.9336C1.2111 22.7294 1.54145 23.4629 2.53324 23.8731C1.47863 24.8432 0.877792 25.5478 0.877792 26.8717C0.877792 29.1946 2.9508 30.5481 8.38865 30.5481C13.6174 30.5481 16.6504 28.6368 16.6504 25.2541C16.6504 21.0106 13.3129 21.1668 5.44432 20.6966L6.43685 19.1376C8.45221 19.686 15.2092 19.861 15.2092 14.2264C15.2092 12.8736 14.638 11.9324 14.1007 11.2553L16.8654 11.0498L16.8625 8.55043ZM12.1755 26.0499C12.1755 28.3691 4.4237 28.372 4.4237 26.2257C4.4237 25.6368 4.81318 25.1405 5.20487 24.6674C10.9479 25.0508 12.1755 24.9112 12.1755 26.0499ZM8.42043 16.3141C4.5183 16.3141 4.69124 11.1663 8.50911 11.1663C12.1703 11.1663 12.2649 16.3141 8.42043 16.3141ZM18.2718 23.5852V21.263C20.2488 20.9983 20.285 21.1183 20.285 20.4673V11.8217C20.285 11.2068 20.1335 11.2878 18.2718 10.6454L18.6022 8.26396H24.8227V20.4687C24.8227 20.9397 24.8522 20.9983 25.3038 21.0576L26.8358 21.263V23.5852H18.2718ZM22.1481 5.91141C20.4357 5.91141 19.4439 4.93986 19.4439 3.26298C19.4439 1.5861 20.4357 0.675323 22.1481 0.675323C23.8907 0.675323 24.8825 1.58828 24.8825 3.26298C24.8825 4.93769 23.8907 5.91141 22.1481 5.91141ZM38.7166 22.4451C37.424 23.0622 35.5313 23.6214 33.8183 23.6214C30.2428 23.6214 28.8911 22.2107 28.8911 18.8859V11.1808C28.8911 10.7887 28.9687 10.8871 26.5476 10.8871V8.26902C29.1919 7.97459 30.2428 6.67751 30.5731 3.47494H33.428C33.428 8.23719 33.329 7.94638 33.669 7.94638H37.9037V10.8871H33.428V17.9151C33.428 18.4157 33.0644 21.6341 37.9044 19.8567L38.7166 22.4451Z" fill="#0469FF"/>
</svg>
